<svg width="60" height="60" viewBox="0 0 60 60" fill="none" xmlns="http://www.w3.org/2000/svg">
<path d="M0 50V45.1111H12.619V40.2222H2.52381V35.3333H12.619V30.4444H5.17381V25.5556H12.619V18.3444L7.69762 8.07778L12.2405 6L18.1714 18.2222H47.4476L42.5262 8.07778L47.069 6L53 18.2222V50H0ZM27.7619 32.8889H37.8571C38.5722 32.8889 39.1716 32.6546 39.6554 32.1861C40.1391 31.7176 40.381 31.137 40.381 30.4444C40.381 29.7519 40.1391 29.1713 39.6554 28.7028C39.1716 28.2343 38.5722 28 37.8571 28H27.7619C27.0468 28 26.4474 28.2343 25.9637 28.7028C25.48 29.1713 25.2381 29.7519 25.2381 30.4444C25.2381 31.137 25.48 31.7176 25.9637 32.1861C26.4474 32.6546 27.0468 32.8889 27.7619 32.8889ZM17.6667 45.1111H47.9524V23.1111H17.6667V45.1111Z" fill="#686748"/>
</svg>
