<svg width="60" height="60" viewBox="0 0 60 60" fill="none" xmlns="http://www.w3.org/2000/svg">
<path d="M36.4936 49.635L27.1458 40.285L30.2251 37.205L36.4936 43.475L48.9207 31.045L52 34.125L36.4936 49.635ZM48.5908 27.8H44.1918V16.8H39.7928V23.4H17.798V16.8H13.399V47.6H26.5959V52H13.399C12.1893 52 11.1537 51.5692 10.2922 50.7075C9.43073 49.8458 9 48.81 9 47.6V16.8C9 15.59 9.43073 14.5542 10.2922 13.6925C11.1537 12.8308 12.1893 12.4 13.399 12.4H22.5818C22.9851 11.1167 23.7732 10.0625 24.9463 9.2375C26.1194 8.4125 27.4024 8 28.7954 8C30.2617 8 31.5723 8.4125 32.727 9.2375C33.8817 10.0625 34.6607 11.1167 35.0639 12.4H44.1918C45.4015 12.4 46.4371 12.8308 47.2986 13.6925C48.1601 14.5542 48.5908 15.59 48.5908 16.8V27.8ZM28.7954 16.8C29.4186 16.8 29.941 16.5892 30.3625 16.1675C30.7841 15.7458 30.9949 15.2233 30.9949 14.6C30.9949 13.9767 30.7841 13.4542 30.3625 13.0325C29.941 12.6108 29.4186 12.4 28.7954 12.4C28.1722 12.4 27.6498 12.6108 27.2283 13.0325C26.8067 13.4542 26.5959 13.9767 26.5959 14.6C26.5959 15.2233 26.8067 15.7458 27.2283 16.1675C27.6498 16.5892 28.1722 16.8 28.7954 16.8Z" fill="#686748"/>
</svg>
