<svg width="60" height="60" viewBox="0 0 60 60" fill="none" xmlns="http://www.w3.org/2000/svg">
<path d="M30 55C26.9444 55 24.0824 54.4232 21.4139 53.2696C18.7454 52.1161 16.4231 50.5577 14.4472 48.5946C12.4713 46.6315 10.9028 44.3244 9.74167 41.6732C8.58056 39.022 8 36.1786 8 33.1429C8 30.1071 8.58056 27.2637 9.74167 24.6125C10.9028 21.9613 12.4713 19.6542 14.4472 17.6911C16.4231 15.728 18.7454 14.1696 21.4139 13.0161C24.0824 11.8625 26.9444 11.2857 30 11.2857H30.3667L26.5778 7.52143L30 4L39.7778 13.7143L30 23.4286L26.5778 19.9071L30.3667 16.1429H30C25.2333 16.1429 21.1898 17.7923 17.8694 21.0911C14.5491 24.3899 12.8889 28.4071 12.8889 33.1429C12.8889 37.8786 14.5491 41.8958 17.8694 45.1946C21.1898 48.4935 25.2333 50.1429 30 50.1429C34.7667 50.1429 38.8102 48.4935 42.1306 45.1946C45.4509 41.8958 47.1111 37.8786 47.1111 33.1429H52C52 36.1786 51.4194 39.022 50.2583 41.6732C49.0972 44.3244 47.5287 46.6315 45.5528 48.5946C43.5769 50.5577 41.2546 52.1161 38.5861 53.2696C35.9176 54.4232 33.0556 55 30 55Z" fill="#686748"/>
</svg>
