<svg width="103" height="96" viewBox="0 0 103 96" fill="none" xmlns="http://www.w3.org/2000/svg">
<rect x="13" y="39" width="77.0593" height="46.08" rx="7" fill="white"/>
<path d="M53.7949 72.1922C52.2178 72.1922 50.8198 71.954 49.6007 71.4777C48.3902 71.0014 47.3673 70.3345 46.5318 69.4772C45.7049 68.6198 45.0741 67.6065 44.6394 66.4374C44.2131 65.2682 44 63.9908 44 62.6052C44 60.7259 44.3794 59.0631 45.1381 57.6168C45.8968 56.1705 46.9794 55.0404 48.386 54.2263C49.7926 53.4036 51.4719 52.9922 53.4241 52.9922C54.0634 52.9922 54.6857 53.0355 55.291 53.1221C55.8963 53.2 56.4674 53.3126 57.0045 53.4598C57.5501 53.5984 58.053 53.7543 58.5133 53.9275C58.9822 54.0921 59.3871 54.2653 59.7281 54.4471L59.4468 57.8377C58.7393 57.4306 58.0488 57.1015 57.3753 56.8504C56.7104 56.5906 56.0667 56.4044 55.4444 56.2918C54.8307 56.1705 54.2467 56.1099 53.6926 56.1099C52.8316 56.1099 52.0346 56.2528 51.3014 56.5386C50.5768 56.8157 49.9417 57.2358 49.3962 57.7987C48.8591 58.3529 48.4414 59.0371 48.143 59.8512C47.8447 60.6566 47.6955 61.5789 47.6955 62.6182C47.6955 63.5362 47.8233 64.3979 48.0791 65.2033C48.3348 66 48.7227 66.7015 49.2427 67.3077C49.7627 67.914 50.4276 68.3903 51.2375 68.7367C52.0473 69.0745 52.9978 69.2433 54.089 69.2433C54.6005 69.2433 55.0949 69.2217 55.5723 69.1784C56.0497 69.1264 56.5143 69.0442 56.9661 68.9316C57.4179 68.819 57.8612 68.6804 58.296 68.5159C58.7307 68.3427 59.1655 68.1348 59.6002 67.8923L60.0222 71.1659C59.7324 71.2958 59.3616 71.4214 58.9097 71.5427C58.4665 71.6639 57.9678 71.7765 57.4137 71.8804C56.8595 71.9757 56.2756 72.0493 55.6618 72.1013C55.048 72.1619 54.4257 72.1922 53.7949 72.1922ZM56.6592 71.2309C56.6592 70.2869 56.6592 69.4598 56.6592 68.7497C56.6592 68.0309 56.6592 67.3121 56.6592 66.5933C56.6592 65.7532 56.6592 65.0128 56.6592 64.3719C56.6592 63.7224 56.6592 63.0642 56.6592 62.3973H60.0222C60.0222 63.0642 60.0222 63.7224 60.0222 64.3719C60.0222 65.0128 60.0222 65.7532 60.0222 66.5933C60.0222 67.3121 60.0222 68.0266 60.0222 68.7367C60.0222 69.4382 60.0222 70.2479 60.0222 71.1659L56.6592 71.2309Z" fill="black"/>
<circle cx="52" cy="32" r="5" fill="white"/>
<path d="M52 12L46.2265 22L57.7735 22L52 12ZM53 41L53 21L51 21L51 41L53 41Z" fill="white"/>
</svg>
