<svg width="123" height="96" viewBox="0 0 123 96" fill="none" xmlns="http://www.w3.org/2000/svg">
<rect x="14.5" y="39" width="77.0593" height="46.08" rx="7" fill="white"/>
<path d="M55.2949 72.1922C53.7178 72.1922 52.3198 71.954 51.1007 71.4777C49.8902 71.0014 48.8673 70.3345 48.0318 69.4772C47.2049 68.6198 46.5741 67.6065 46.1394 66.4374C45.7131 65.2682 45.5 63.9908 45.5 62.6052C45.5 60.7259 45.8794 59.0631 46.6381 57.6168C47.3968 56.1705 48.4794 55.0404 49.886 54.2263C51.2926 53.4036 52.9719 52.9922 54.9241 52.9922C55.5634 52.9922 56.1857 53.0355 56.791 53.1221C57.3963 53.2 57.9674 53.3126 58.5045 53.4598C59.0501 53.5984 59.553 53.7543 60.0133 53.9275C60.4822 54.0921 60.8871 54.2653 61.2281 54.4471L60.9468 57.8377C60.2393 57.4306 59.5488 57.1015 58.8753 56.8504C58.2104 56.5906 57.5667 56.4044 56.9444 56.2918C56.3307 56.1705 55.7467 56.1099 55.1926 56.1099C54.3316 56.1099 53.5346 56.2528 52.8014 56.5386C52.0768 56.8157 51.4417 57.2358 50.8962 57.7987C50.3591 58.3529 49.9414 59.0371 49.643 59.8512C49.3447 60.6566 49.1955 61.5789 49.1955 62.6182C49.1955 63.5362 49.3233 64.3979 49.5791 65.2033C49.8348 66 50.2227 66.7015 50.7427 67.3077C51.2627 67.914 51.9276 68.3903 52.7375 68.7367C53.5473 69.0745 54.4978 69.2433 55.589 69.2433C56.1005 69.2433 56.5949 69.2217 57.0723 69.1784C57.5497 69.1264 58.0143 69.0442 58.4661 68.9316C58.9179 68.819 59.3612 68.6804 59.796 68.5159C60.2307 68.3427 60.6655 68.1348 61.1002 67.8923L61.5222 71.1659C61.2324 71.2958 60.8616 71.4214 60.4097 71.5427C59.9665 71.6639 59.4678 71.7765 58.9137 71.8804C58.3595 71.9757 57.7756 72.0493 57.1618 72.1013C56.548 72.1619 55.9257 72.1922 55.2949 72.1922ZM58.1592 71.2309C58.1592 70.2869 58.1592 69.4598 58.1592 68.7497C58.1592 68.0309 58.1592 67.3121 58.1592 66.5933C58.1592 65.7532 58.1592 65.0128 58.1592 64.3719C58.1592 63.7224 58.1592 63.0642 58.1592 62.3973H61.5222C61.5222 63.0642 61.5222 63.7224 61.5222 64.3719C61.5222 65.0128 61.5222 65.7532 61.5222 66.5933C61.5222 67.3121 61.5222 68.0266 61.5222 68.7367C61.5222 69.4382 61.5222 70.2479 61.5222 71.1659L58.1592 71.2309Z" fill="black"/>
<circle cx="97" cy="63" r="5" transform="rotate(90 97 63)" fill="white"/>
<path d="M107 39L101.226 49L112.774 49L107 39ZM107 63L107 64L108 64L108 63L107 63ZM91 64L107 64L107 62L91 62L91 64ZM108 63L108 48L106 48L106 63L108 63Z" fill="white"/>
</svg>
