<svg width="44" height="44" viewBox="0 0 44 44" fill="none" xmlns="http://www.w3.org/2000/svg">
<g clip-path="url(#clip0_515_587)">
<path fill-rule="evenodd" clip-rule="evenodd" d="M44 22C44 34.1503 34.1503 44 22 44C9.84974 44 0 34.1503 0 22C0 9.84974 9.84974 0 22 0C34.1503 0 44 9.84974 44 22ZM27.5963 10.726C26.1361 10.6576 25.6994 10.6445 22.0001 10.6445C18.3041 10.6445 17.8641 10.6608 16.404 10.726C15.0546 10.7879 14.3213 11.0128 13.8324 11.2019C13.1838 11.4528 12.7243 11.7527 12.2386 12.2383C11.753 12.7239 11.4531 13.1868 11.2022 13.8321C11.0131 14.321 10.7883 15.0543 10.7263 16.4037C10.6579 17.8638 10.6448 18.3038 10.6448 21.9998C10.6448 25.6958 10.6611 26.1358 10.7263 27.5959C10.7883 28.9453 11.0131 29.6786 11.2022 30.1675C11.4531 30.8161 11.753 31.2757 12.2386 31.7613C12.7243 32.2469 13.1871 32.5468 13.8324 32.7977C14.3213 32.9868 15.0546 33.2117 16.404 33.2736C17.8641 33.342 18.3008 33.3551 22.0001 33.3551C25.6994 33.3551 26.1361 33.3388 27.5963 33.2736C28.9456 33.2117 29.6789 32.9868 30.1678 32.7977C30.8164 32.5468 31.276 32.2469 31.7616 31.7613C32.2472 31.2757 32.5471 30.8128 32.798 30.1675C32.9871 29.6786 33.212 28.9453 33.2739 27.5959C33.3423 26.1358 33.3554 25.6958 33.3554 21.9998C33.3554 18.3038 33.3391 17.8638 33.2739 16.4037C33.212 15.0543 32.9871 14.321 32.798 13.8321C32.5471 13.1835 32.2472 12.7239 31.7616 12.2383C31.276 11.7527 30.8131 11.4528 30.1678 11.2019C29.6789 11.0128 28.9456 10.7879 27.5963 10.726ZM16.2899 8.23269C17.7663 8.16425 18.2389 8.14795 22.0001 8.14795C25.7613 8.14795 26.2339 8.16425 27.7103 8.23269C29.1868 8.30113 30.1939 8.5358 31.0739 8.87802C31.9865 9.23002 32.7589 9.70588 33.5281 10.4751C34.2973 11.2475 34.7699 12.0199 35.1251 12.9293C35.4706 13.8125 35.702 14.8197 35.7705 16.2928C35.8389 17.7693 35.8552 18.2419 35.8552 22.0031C35.8552 25.7642 35.8389 26.2368 35.7705 27.7133C35.702 29.1897 35.4674 30.1968 35.1251 31.0768C34.7731 31.9894 34.2973 32.7619 33.5281 33.5311C32.7557 34.3002 31.9832 34.7728 31.0739 35.1281C30.1906 35.4736 29.1835 35.705 27.7103 35.7734C26.2339 35.8419 25.7613 35.8582 22.0001 35.8582C18.2389 35.8582 17.7663 35.8419 16.2899 35.7734C14.8134 35.705 13.8063 35.4703 12.9263 35.1281C12.0137 34.7761 11.2413 34.3002 10.4721 33.5311C9.70292 32.7586 9.23033 31.9862 8.87507 31.0768C8.52959 30.1936 8.29818 29.1865 8.22974 27.7133C8.16129 26.2368 8.14499 25.7642 8.14499 22.0031C8.14499 18.2419 8.16129 17.7693 8.22974 16.2928C8.29818 14.8164 8.53285 13.8093 8.87507 12.9293C9.22707 12.0167 9.70292 11.2442 10.4721 10.4751C11.2446 9.70588 12.017 9.23328 12.9263 8.87802C13.8096 8.53254 14.8167 8.30113 16.2899 8.23269ZM14.8884 22.0004C14.8884 18.073 18.0727 14.8887 22.0001 14.8887C25.9275 14.8887 29.1118 18.073 29.1118 22.0004C29.1118 25.9278 25.9275 29.1121 22.0001 29.1121C18.0727 29.1121 14.8884 25.9278 14.8884 22.0004ZM17.3817 22.0004C17.3817 24.5524 19.4514 26.6187 22.0001 26.6187C24.5521 26.6187 26.6185 24.5524 26.6185 22.0004C26.6185 19.4484 24.5521 17.382 22.0001 17.382C19.4481 17.382 17.3817 19.4484 17.3817 22.0004ZM29.3953 16.2666C30.3133 16.2666 31.0576 15.5224 31.0576 14.6044C31.0576 13.6864 30.3133 12.9422 29.3953 12.9422C28.4773 12.9422 27.7331 13.6864 27.7331 14.6044C27.7331 15.5224 28.4773 16.2666 29.3953 16.2666Z" fill="#707070"/>
</g>
<defs>
<clipPath id="clip0_515_587">
<rect width="44" height="44" fill="white"/>
</clipPath>
</defs>
</svg>
