<svg width="44" height="44" viewBox="0 0 44 44" fill="none" xmlns="http://www.w3.org/2000/svg">
<g clip-path="url(#clip0_515_586)">
<path fill-rule="evenodd" clip-rule="evenodd" d="M0 22C0 9.84948 9.84948 0 22 0C34.1505 0 44 9.84948 44 22C44 34.1505 34.1505 44 22 44C9.84948 44 0 34.1505 0 22ZM33.4596 31.6539C34.7241 31.315 35.715 30.3209 36.0539 29.0596C36.6667 26.7716 36.6667 22 36.6667 22C36.6667 22 36.6667 17.2284 36.0539 14.9404C35.715 13.6759 34.7209 12.685 33.4596 12.3461C31.1716 11.7333 22 11.7333 22 11.7333C22 11.7333 12.8284 11.7333 10.5404 12.3461C9.27585 12.685 8.28504 13.6791 7.94607 14.9404C7.33333 17.2284 7.33333 22 7.33333 22C7.33333 22 7.33333 26.7716 7.94607 29.0596C8.28504 30.3241 9.27911 31.315 10.5404 31.6539C12.8284 32.2667 22 32.2667 22 32.2667C22 32.2667 31.1716 32.2667 33.4596 31.6539ZM26.687 22L19.0668 26.4V17.6L26.687 22Z" fill="#707070"/>
</g>
<defs>
<clipPath id="clip0_515_586">
<rect width="44" height="44" fill="white"/>
</clipPath>
</defs>
</svg>
