<svg width="44" height="44" viewBox="0 0 44 44" fill="none" xmlns="http://www.w3.org/2000/svg">
<g clip-path="url(#clip0_515_595)">
<path d="M22 0C9.84948 0 0 9.84948 0 22C0 34.1505 9.84948 44 22 44C34.1505 44 44 34.1505 44 22C44 9.84948 34.1505 0 22 0ZM32.7262 13.992C32.6024 16.0127 28.8542 31.0933 28.8542 31.0933C28.8542 31.0933 28.6293 31.9766 27.8276 32.0059C27.5342 32.0157 27.179 31.957 26.7553 31.592C25.9079 30.8652 23.949 29.4735 22.1271 28.2154C21.5763 28.6782 20.4779 29.6299 19.3404 30.7641C17.7304 32.3742 17.9357 30.7641 17.9357 30.7641L18.4311 25.507L18.4441 25.5135C18.467 25.4613 18.5028 25.4157 18.5028 25.4157C18.5028 25.4157 27.9905 16.9807 28.2415 16.0975C28.261 16.029 28.1861 15.9964 28.0883 16.0258C27.4593 16.2572 16.5342 23.157 15.3283 23.9164C15.2566 23.9621 15.061 23.9327 15.061 23.9327L9.76148 22.2053C9.76148 22.2053 9.12918 21.9479 9.33126 21.3644C9.37363 21.2439 9.45837 21.1428 9.70933 20.9668C10.8827 20.1487 31.4453 12.7567 31.4453 12.7567C31.4453 12.7567 32.0255 12.5612 32.3677 12.6916C32.5241 12.7502 32.6252 12.8187 32.7099 13.0631C32.7393 13.1511 32.7588 13.3434 32.7556 13.5324C32.7556 13.6693 32.736 13.7932 32.7262 13.992Z" fill="#707070"/>
</g>
<defs>
<clipPath id="clip0_515_595">
<rect width="44" height="44" fill="white"/>
</clipPath>
</defs>
</svg>
