<svg width="28" height="28" viewBox="0 0 28 28" fill="none" xmlns="http://www.w3.org/2000/svg">
<path d="M6 22C5.45 22 4.97917 21.8042 4.5875 21.4125C4.19583 21.0208 4 20.55 4 20V8C4 7.45 4.19583 6.97917 4.5875 6.5875C4.97917 6.19583 5.45 6 6 6H22C22.55 6 23.0208 6.19583 23.4125 6.5875C23.8042 6.97917 24 7.45 24 8V20C24 20.55 23.8042 21.0208 23.4125 21.4125C23.0208 21.8042 22.55 22 22 22H6ZM22 10L14.525 14.675C14.4417 14.725 14.3542 14.7625 14.2625 14.7875C14.1708 14.8125 14.0833 14.825 14 14.825C13.9167 14.825 13.8292 14.8125 13.7375 14.7875C13.6458 14.7625 13.5583 14.725 13.475 14.675L6 10V20H22V10ZM14 13L22 8H6L14 13ZM6 10.25V8.775V8.8V8.7875V10.25Z" fill="#686748"/>
</svg>
