<svg width="28" height="28" viewBox="0 0 28 28" fill="none" xmlns="http://www.w3.org/2000/svg">
<path d="M14.0003 14.0007C14.642 14.0007 15.1913 13.7722 15.6482 13.3152C16.1052 12.8583 16.3337 12.309 16.3337 11.6673C16.3337 11.0257 16.1052 10.4763 15.6482 10.0194C15.1913 9.56246 14.642 9.33398 14.0003 9.33398C13.3587 9.33398 12.8094 9.56246 12.3524 10.0194C11.8955 10.4763 11.667 11.0257 11.667 11.6673C11.667 12.309 11.8955 12.8583 12.3524 13.3152C12.8094 13.7722 13.3587 14.0007 14.0003 14.0007ZM14.0003 22.5757C16.3725 20.3979 18.1323 18.4194 19.2795 16.6402C20.4267 14.8611 21.0003 13.2812 21.0003 11.9007C21.0003 9.78121 20.3246 8.04579 18.9732 6.6944C17.6219 5.34301 15.9642 4.66732 14.0003 4.66732C12.0364 4.66732 10.3788 5.34301 9.02741 6.6944C7.67602 8.04579 7.00033 9.78121 7.00033 11.9007C7.00033 13.2812 7.57394 14.8611 8.72116 16.6402C9.86838 18.4194 11.6281 20.3979 14.0003 22.5757ZM14.0003 25.6673C10.8698 23.0034 8.53158 20.5291 6.98574 18.2444C5.43991 15.9597 4.66699 13.8451 4.66699 11.9007C4.66699 8.98398 5.60519 6.66037 7.48158 4.92982C9.35796 3.19926 11.5309 2.33398 14.0003 2.33398C16.4698 2.33398 18.6427 3.19926 20.5191 4.92982C22.3955 6.66037 23.3337 8.98398 23.3337 11.9007C23.3337 13.8451 22.5607 15.9597 21.0149 18.2444C19.4691 20.5291 17.1309 23.0034 14.0003 25.6673Z" fill="#686748"/>
</svg>
